# Silinder satuan: jari-jari 0,5, tinggi 1,0, sumbu +X.
# Pasangan gambar untuk ColliderComponent berbentuk Cylinder dengan
# radius dan halfHeight bawaan. Dihasilkan, bukan digambar tangan.
o UnitCylinder
v -0.500000 0.500000 0.000000
v 0.500000 0.500000 0.000000
v -0.500000 0.490393 0.097545
v 0.500000 0.490393 0.097545
v -0.500000 0.461940 0.191342
v 0.500000 0.461940 0.191342
v -0.500000 0.415735 0.277785
v 0.500000 0.415735 0.277785
v -0.500000 0.353553 0.353553
v 0.500000 0.353553 0.353553
v -0.500000 0.277785 0.415735
v 0.500000 0.277785 0.415735
v -0.500000 0.191342 0.461940
v 0.500000 0.191342 0.461940
v -0.500000 0.097545 0.490393
v 0.500000 0.097545 0.490393
v -0.500000 0.000000 0.500000
v 0.500000 0.000000 0.500000
v -0.500000 -0.097545 0.490393
v 0.500000 -0.097545 0.490393
v -0.500000 -0.191342 0.461940
v 0.500000 -0.191342 0.461940
v -0.500000 -0.277785 0.415735
v 0.500000 -0.277785 0.415735
v -0.500000 -0.353553 0.353553
v 0.500000 -0.353553 0.353553
v -0.500000 -0.415735 0.277785
v 0.500000 -0.415735 0.277785
v -0.500000 -0.461940 0.191342
v 0.500000 -0.461940 0.191342
v -0.500000 -0.490393 0.097545
v 0.500000 -0.490393 0.097545
v -0.500000 -0.500000 0.000000
v 0.500000 -0.500000 0.000000
v -0.500000 -0.490393 -0.097545
v 0.500000 -0.490393 -0.097545
v -0.500000 -0.461940 -0.191342
v 0.500000 -0.461940 -0.191342
v -0.500000 -0.415735 -0.277785
v 0.500000 -0.415735 -0.277785
v -0.500000 -0.353553 -0.353553
v 0.500000 -0.353553 -0.353553
v -0.500000 -0.277785 -0.415735
v 0.500000 -0.277785 -0.415735
v -0.500000 -0.191342 -0.461940
v 0.500000 -0.191342 -0.461940
v -0.500000 -0.097545 -0.490393
v 0.500000 -0.097545 -0.490393
v -0.500000 -0.000000 -0.500000
v 0.500000 -0.000000 -0.500000
v -0.500000 0.097545 -0.490393
v 0.500000 0.097545 -0.490393
v -0.500000 0.191342 -0.461940
v 0.500000 0.191342 -0.461940
v -0.500000 0.277785 -0.415735
v 0.500000 0.277785 -0.415735
v -0.500000 0.353553 -0.353553
v 0.500000 0.353553 -0.353553
v -0.500000 0.415735 -0.277785
v 0.500000 0.415735 -0.277785
v -0.500000 0.461940 -0.191342
v 0.500000 0.461940 -0.191342
v -0.500000 0.490393 -0.097545
v 0.500000 0.490393 -0.097545
v -0.500000 0.500000 -0.000000
v 0.500000 0.500000 -0.000000
v -0.500000 0.000000 0.000000
v -0.500000 0.500000 0.000000
v -0.500000 0.490393 0.097545
v -0.500000 0.461940 0.191342
v -0.500000 0.415735 0.277785
v -0.500000 0.353553 0.353553
v -0.500000 0.277785 0.415735
v -0.500000 0.191342 0.461940
v -0.500000 0.097545 0.490393
v -0.500000 0.000000 0.500000
v -0.500000 -0.097545 0.490393
v -0.500000 -0.191342 0.461940
v -0.500000 -0.277785 0.415735
v -0.500000 -0.353553 0.353553
v -0.500000 -0.415735 0.277785
v -0.500000 -0.461940 0.191342
v -0.500000 -0.490393 0.097545
v -0.500000 -0.500000 0.000000
v -0.500000 -0.490393 -0.097545
v -0.500000 -0.461940 -0.191342
v -0.500000 -0.415735 -0.277785
v -0.500000 -0.353553 -0.353553
v -0.500000 -0.277785 -0.415735
v -0.500000 -0.191342 -0.461940
v -0.500000 -0.097545 -0.490393
v -0.500000 -0.000000 -0.500000
v -0.500000 0.097545 -0.490393
v -0.500000 0.191342 -0.461940
v -0.500000 0.277785 -0.415735
v -0.500000 0.353553 -0.353553
v -0.500000 0.415735 -0.277785
v -0.500000 0.461940 -0.191342
v -0.500000 0.490393 -0.097545
v 0.500000 0.000000 0.000000
v 0.500000 0.500000 0.000000
v 0.500000 0.490393 0.097545
v 0.500000 0.461940 0.191342
v 0.500000 0.415735 0.277785
v 0.500000 0.353553 0.353553
v 0.500000 0.277785 0.415735
v 0.500000 0.191342 0.461940
v 0.500000 0.097545 0.490393
v 0.500000 0.000000 0.500000
v 0.500000 -0.097545 0.490393
v 0.500000 -0.191342 0.461940
v 0.500000 -0.277785 0.415735
v 0.500000 -0.353553 0.353553
v 0.500000 -0.415735 0.277785
v 0.500000 -0.461940 0.191342
v 0.500000 -0.490393 0.097545
v 0.500000 -0.500000 0.000000
v 0.500000 -0.490393 -0.097545
v 0.500000 -0.461940 -0.191342
v 0.500000 -0.415735 -0.277785
v 0.500000 -0.353553 -0.353553
v 0.500000 -0.277785 -0.415735
v 0.500000 -0.191342 -0.461940
v 0.500000 -0.097545 -0.490393
v 0.500000 -0.000000 -0.500000
v 0.500000 0.097545 -0.490393
v 0.500000 0.191342 -0.461940
v 0.500000 0.277785 -0.415735
v 0.500000 0.353553 -0.353553
v 0.500000 0.415735 -0.277785
v 0.500000 0.461940 -0.191342
v 0.500000 0.490393 -0.097545
vn 0.000000 1.000000 0.000000
vn 0.000000 1.000000 0.000000
vn 0.000000 0.980785 0.195090
vn 0.000000 0.980785 0.195090
vn 0.000000 0.923880 0.382683
vn 0.000000 0.923880 0.382683
vn 0.000000 0.831470 0.555570
vn 0.000000 0.831470 0.555570
vn 0.000000 0.707107 0.707107
vn 0.000000 0.707107 0.707107
vn 0.000000 0.555570 0.831470
vn 0.000000 0.555570 0.831470
vn 0.000000 0.382683 0.923880
vn 0.000000 0.382683 0.923880
vn 0.000000 0.195090 0.980785
vn 0.000000 0.195090 0.980785
vn 0.000000 0.000000 1.000000
vn 0.000000 0.000000 1.000000
vn 0.000000 -0.195090 0.980785
vn 0.000000 -0.195090 0.980785
vn 0.000000 -0.382683 0.923880
vn 0.000000 -0.382683 0.923880
vn 0.000000 -0.555570 0.831470
vn 0.000000 -0.555570 0.831470
vn 0.000000 -0.707107 0.707107
vn 0.000000 -0.707107 0.707107
vn 0.000000 -0.831470 0.555570
vn 0.000000 -0.831470 0.555570
vn 0.000000 -0.923880 0.382683
vn 0.000000 -0.923880 0.382683
vn 0.000000 -0.980785 0.195090
vn 0.000000 -0.980785 0.195090
vn 0.000000 -1.000000 0.000000
vn 0.000000 -1.000000 0.000000
vn 0.000000 -0.980785 -0.195090
vn 0.000000 -0.980785 -0.195090
vn 0.000000 -0.923880 -0.382683
vn 0.000000 -0.923880 -0.382683
vn 0.000000 -0.831470 -0.555570
vn 0.000000 -0.831470 -0.555570
vn 0.000000 -0.707107 -0.707107
vn 0.000000 -0.707107 -0.707107
vn 0.000000 -0.555570 -0.831470
vn 0.000000 -0.555570 -0.831470
vn 0.000000 -0.382683 -0.923880
vn 0.000000 -0.382683 -0.923880
vn 0.000000 -0.195090 -0.980785
vn 0.000000 -0.195090 -0.980785
vn 0.000000 -0.000000 -1.000000
vn 0.000000 -0.000000 -1.000000
vn 0.000000 0.195090 -0.980785
vn 0.000000 0.195090 -0.980785
vn 0.000000 0.382683 -0.923880
vn 0.000000 0.382683 -0.923880
vn 0.000000 0.555570 -0.831470
vn 0.000000 0.555570 -0.831470
vn 0.000000 0.707107 -0.707107
vn 0.000000 0.707107 -0.707107
vn 0.000000 0.831470 -0.555570
vn 0.000000 0.831470 -0.555570
vn 0.000000 0.923880 -0.382683
vn 0.000000 0.923880 -0.382683
vn 0.000000 0.980785 -0.195090
vn 0.000000 0.980785 -0.195090
vn 0.000000 1.000000 -0.000000
vn 0.000000 1.000000 -0.000000
vn -1.000000 0.000000 0.000000
vn -1.000000 0.000000 0.000000
vn -1.000000 0.000000 0.000000
vn -1.000000 0.000000 0.000000
vn -1.000000 0.000000 0.000000
vn -1.000000 0.000000 0.000000
vn -1.000000 0.000000 0.000000
vn -1.000000 0.000000 0.000000
vn -1.000000 0.000000 0.000000
vn -1.000000 0.000000 0.000000
vn -1.000000 0.000000 0.000000
vn -1.000000 0.000000 0.000000
vn -1.000000 0.000000 0.000000
vn -1.000000 0.000000 0.000000
vn -1.000000 0.000000 0.000000
vn -1.000000 0.000000 0.000000
vn -1.000000 0.000000 0.000000
vn -1.000000 0.000000 0.000000
vn -1.000000 0.000000 0.000000
vn -1.000000 0.000000 0.000000
vn -1.000000 0.000000 0.000000
vn -1.000000 0.000000 0.000000
vn -1.000000 0.000000 0.000000
vn -1.000000 0.000000 0.000000
vn -1.000000 0.000000 0.000000
vn -1.000000 0.000000 0.000000
vn -1.000000 0.000000 0.000000
vn -1.000000 0.000000 0.000000
vn -1.000000 0.000000 0.000000
vn -1.000000 0.000000 0.000000
vn -1.000000 0.000000 0.000000
vn -1.000000 0.000000 0.000000
vn -1.000000 0.000000 0.000000
vn 1.000000 0.000000 0.000000
vn 1.000000 0.000000 0.000000
vn 1.000000 0.000000 0.000000
vn 1.000000 0.000000 0.000000
vn 1.000000 0.000000 0.000000
vn 1.000000 0.000000 0.000000
vn 1.000000 0.000000 0.000000
vn 1.000000 0.000000 0.000000
vn 1.000000 0.000000 0.000000
vn 1.000000 0.000000 0.000000
vn 1.000000 0.000000 0.000000
vn 1.000000 0.000000 0.000000
vn 1.000000 0.000000 0.000000
vn 1.000000 0.000000 0.000000
vn 1.000000 0.000000 0.000000
vn 1.000000 0.000000 0.000000
vn 1.000000 0.000000 0.000000
vn 1.000000 0.000000 0.000000
vn 1.000000 0.000000 0.000000
vn 1.000000 0.000000 0.000000
vn 1.000000 0.000000 0.000000
vn 1.000000 0.000000 0.000000
vn 1.000000 0.000000 0.000000
vn 1.000000 0.000000 0.000000
vn 1.000000 0.000000 0.000000
vn 1.000000 0.000000 0.000000
vn 1.000000 0.000000 0.000000
vn 1.000000 0.000000 0.000000
vn 1.000000 0.000000 0.000000
vn 1.000000 0.000000 0.000000
vn 1.000000 0.000000 0.000000
vn 1.000000 0.000000 0.000000
vn 1.000000 0.000000 0.000000
f 1//1 3//3 4//4
f 1//1 4//4 2//2
f 3//3 5//5 6//6
f 3//3 6//6 4//4
f 5//5 7//7 8//8
f 5//5 8//8 6//6
f 7//7 9//9 10//10
f 7//7 10//10 8//8
f 9//9 11//11 12//12
f 9//9 12//12 10//10
f 11//11 13//13 14//14
f 11//11 14//14 12//12
f 13//13 15//15 16//16
f 13//13 16//16 14//14
f 15//15 17//17 18//18
f 15//15 18//18 16//16
f 17//17 19//19 20//20
f 17//17 20//20 18//18
f 19//19 21//21 22//22
f 19//19 22//22 20//20
f 21//21 23//23 24//24
f 21//21 24//24 22//22
f 23//23 25//25 26//26
f 23//23 26//26 24//24
f 25//25 27//27 28//28
f 25//25 28//28 26//26
f 27//27 29//29 30//30
f 27//27 30//30 28//28
f 29//29 31//31 32//32
f 29//29 32//32 30//30
f 31//31 33//33 34//34
f 31//31 34//34 32//32
f 33//33 35//35 36//36
f 33//33 36//36 34//34
f 35//35 37//37 38//38
f 35//35 38//38 36//36
f 37//37 39//39 40//40
f 37//37 40//40 38//38
f 39//39 41//41 42//42
f 39//39 42//42 40//40
f 41//41 43//43 44//44
f 41//41 44//44 42//42
f 43//43 45//45 46//46
f 43//43 46//46 44//44
f 45//45 47//47 48//48
f 45//45 48//48 46//46
f 47//47 49//49 50//50
f 47//47 50//50 48//48
f 49//49 51//51 52//52
f 49//49 52//52 50//50
f 51//51 53//53 54//54
f 51//51 54//54 52//52
f 53//53 55//55 56//56
f 53//53 56//56 54//54
f 55//55 57//57 58//58
f 55//55 58//58 56//56
f 57//57 59//59 60//60
f 57//57 60//60 58//58
f 59//59 61//61 62//62
f 59//59 62//62 60//60
f 61//61 63//63 64//64
f 61//61 64//64 62//62
f 63//63 65//65 66//66
f 63//63 66//66 64//64
f 67//67 69//69 68//68
f 67//67 70//70 69//69
f 67//67 71//71 70//70
f 67//67 72//72 71//71
f 67//67 73//73 72//72
f 67//67 74//74 73//73
f 67//67 75//75 74//74
f 67//67 76//76 75//75
f 67//67 77//77 76//76
f 67//67 78//78 77//77
f 67//67 79//79 78//78
f 67//67 80//80 79//79
f 67//67 81//81 80//80
f 67//67 82//82 81//81
f 67//67 83//83 82//82
f 67//67 84//84 83//83
f 67//67 85//85 84//84
f 67//67 86//86 85//85
f 67//67 87//87 86//86
f 67//67 88//88 87//87
f 67//67 89//89 88//88
f 67//67 90//90 89//89
f 67//67 91//91 90//90
f 67//67 92//92 91//91
f 67//67 93//93 92//92
f 67//67 94//94 93//93
f 67//67 95//95 94//94
f 67//67 96//96 95//95
f 67//67 97//97 96//96
f 67//67 98//98 97//97
f 67//67 99//99 98//98
f 67//67 68//68 99//99
f 100//100 101//101 102//102
f 100//100 102//102 103//103
f 100//100 103//103 104//104
f 100//100 104//104 105//105
f 100//100 105//105 106//106
f 100//100 106//106 107//107
f 100//100 107//107 108//108
f 100//100 108//108 109//109
f 100//100 109//109 110//110
f 100//100 110//110 111//111
f 100//100 111//111 112//112
f 100//100 112//112 113//113
f 100//100 113//113 114//114
f 100//100 114//114 115//115
f 100//100 115//115 116//116
f 100//100 116//116 117//117
f 100//100 117//117 118//118
f 100//100 118//118 119//119
f 100//100 119//119 120//120
f 100//100 120//120 121//121
f 100//100 121//121 122//122
f 100//100 122//122 123//123
f 100//100 123//123 124//124
f 100//100 124//124 125//125
f 100//100 125//125 126//126
f 100//100 126//126 127//127
f 100//100 127//127 128//128
f 100//100 128//128 129//129
f 100//100 129//129 130//130
f 100//100 130//130 131//131
f 100//100 131//131 132//132
f 100//100 132//132 101//101
